<svg fill="#fff" width="80px" height="80px" viewBox="0 0 3.6 3.6" version="1.1" preserveAspectRatio="xMidYMid meet" xmlns="http://www.w3.org/2000/svg" xmlns:xlink="http://www.w3.org/1999/xlink"><title>email-solid</title><path class="clr-i-solid clr-i-solid-path-1" d="M3.233 0.6a0.2 0.2 0 0 0 -0.041 0h-2.8a0.2 0.2 0 0 0 -0.053 0.008l1.445 1.439Z"/><path class="clr-i-solid clr-i-solid-path-2" d="m3.381 0.739 -1.456 1.45a0.2 0.2 0 0 1 -0.282 0L0.2 0.75a0.2 0.2 0 0 0 -0.007 0.05v2a0.2 0.2 0 0 0 0.2 0.2h2.8a0.2 0.2 0 0 0 0.2 -0.2V0.8a0.2 0.2 0 0 0 -0.012 -0.061M0.53 2.8H0.391v-0.143l0.727 -0.721 0.141 0.141Zm2.661 0h-0.14l-0.729 -0.723 0.141 -0.141 0.727 0.721Z"/><path x="0" y="0" width="36" height="36" fill-opacity="0" d="M0 0H3.6V3.6H0V0z"/></svg>