<svg width="80px" fill="#fff" height="80px" viewBox="0 0 80 80" role="img" xmlns="http://www.w3.org/2000/svg"><path d="M2.107 1.833v76.333H7.6V80H0V0h7.6v1.833zm23.477 24.2v3.857h0.11a11 11 0 0 1 3.723 -3.413c1.443 -0.817 3.12 -1.217 5 -1.217q2.7 0.007 4.937 1.047c1.493 0.693 2.617 1.94 3.4 3.693q1.273 -1.873 3.447 -3.307 2.17 -1.433 5.153 -1.433 2.263 0 4.2 0.557c1.293 0.367 2.387 0.953 3.31 1.767 0.92 0.817 1.63 1.863 2.153 3.17q0.763 1.957 0.767 4.723v19.093h-7.83V38.4q0 -1.433 -0.107 -2.707a6 6 0 0 0 -0.6 -2.2 3.667 3.667 0 0 0 -1.46 -1.493q-0.973 -0.55 -2.617 -0.553 -1.66 0 -2.677 0.63a4.667 4.667 0 0 0 -1.6 1.663 6.667 6.667 0 0 0 -0.77 2.32 18.667 18.667 0 0 0 -0.2 2.617v15.893h-7.833v-16q0.007 -1.267 -0.06 -2.507a7 7 0 0 0 -0.477 -2.293 3.5 3.5 0 0 0 -1.383 -1.677c-0.647 -0.417 -1.587 -0.633 -2.847 -0.633q-0.56 0 -1.463 0.247c-0.6 0.17 -1.2 0.477 -1.767 0.94a5.467 5.467 0 0 0 -1.463 1.983q-0.6 1.3 -0.6 3.4v16.553H18.2V26.033zm52.31 52.133V1.833H72.4V0H80v80h-7.6v-1.833z"/></svg>