<svg width="16" height="16" viewBox="0 0 16 16" fill="none" xmlns="http://www.w3.org/2000/svg">
<path d="M13.3973 3.70453C12.1045 2.6656 10.0603 2.4896 9.97386 2.48213C9.83733 2.4704 9.70773 2.54773 9.65173 2.67253C9.64959 2.6768 9.53546 3.008 9.42506 3.32747C10.9275 3.5904 11.9483 4.17387 12.0027 4.20587C12.2576 4.35413 12.3429 4.68107 12.1941 4.93547C12.0955 5.10507 11.9168 5.2 11.7333 5.2C11.6421 5.2 11.5504 5.17707 11.4661 5.128C11.4512 5.11893 9.95359 4.26667 8.00106 4.26667C6.04799 4.26667 4.54986 5.11947 4.53493 5.128C4.28053 5.27573 3.95413 5.1888 3.80639 4.93387C3.65866 4.68 3.74453 4.35413 3.99839 4.20587C4.05279 4.17387 5.07733 3.58827 6.58399 3.32587C6.46773 3.00267 6.35039 2.6768 6.34826 2.67253C6.29226 2.5472 6.16266 2.46827 6.02613 2.48213C5.93973 2.48907 3.89546 2.66507 2.58559 3.7184C1.90079 4.35093 0.533325 8.04907 0.533325 11.2464C0.533325 11.3029 0.547725 11.3579 0.575992 11.4069C1.52053 13.0656 4.09546 13.4997 4.68213 13.5184C4.68586 13.5189 4.68906 13.5189 4.69226 13.5189C4.79573 13.5189 4.89333 13.4693 4.95466 13.3856L5.58933 12.5259C4.19733 12.1904 3.46133 11.6629 3.41706 11.6304C3.18026 11.456 3.12906 11.1221 3.30346 10.8848C3.47733 10.6485 3.81013 10.5963 4.04693 10.7696C4.06666 10.7824 5.42506 11.7333 7.99999 11.7333C10.5851 11.7333 11.9397 10.7787 11.9531 10.7691C12.1899 10.5973 12.5237 10.6491 12.6971 10.8869C12.8699 11.1237 12.8197 11.4555 12.584 11.6293C12.5397 11.6619 11.8075 12.1883 10.4187 12.5237L11.0453 13.3851C11.1067 13.4693 11.2043 13.5184 11.3077 13.5184C11.3115 13.5184 11.3147 13.5184 11.3179 13.5179C11.9051 13.4992 14.48 13.0651 15.424 11.4064C15.4523 11.3573 15.4667 11.3024 15.4667 11.2459C15.4667 8.04907 14.0992 4.35093 13.3973 3.70453ZM5.86666 10.1333C5.27733 10.1333 4.79999 9.53653 4.79999 8.8C4.79999 8.06347 5.27733 7.46667 5.86666 7.46667C6.45599 7.46667 6.93333 8.06347 6.93333 8.8C6.93333 9.53653 6.45599 10.1333 5.86666 10.1333ZM10.1333 10.1333C9.54399 10.1333 9.06666 9.53653 9.06666 8.8C9.06666 8.06347 9.54399 7.46667 10.1333 7.46667C10.7227 7.46667 11.2 8.06347 11.2 8.8C11.2 9.53653 10.7227 10.1333 10.1333 10.1333Z" fill="white"/>
</svg>
