<svg width="16" height="16" viewBox="0 0 16 16" fill="none" xmlns="http://www.w3.org/2000/svg">
<path d="M7.99998 1.6C4.46558 1.6 1.59998 4.4656 1.59998 8C1.59998 10.9989 3.66504 13.5083 6.44904 14.2027C6.41918 14.1163 6.39998 14.016 6.39998 13.8917V12.7979C6.14024 12.7979 5.70504 12.7979 5.59571 12.7979C5.15784 12.7979 4.76851 12.6096 4.57971 12.2597C4.37011 11.8709 4.33384 11.2763 3.81438 10.9125C3.66024 10.7915 3.77758 10.6533 3.95518 10.672C4.28318 10.7648 4.55518 10.9899 4.81118 11.3237C5.06611 11.6581 5.18611 11.7339 5.66237 11.7339C5.89331 11.7339 6.23891 11.7205 6.56424 11.6693C6.73917 11.2251 7.04158 10.816 7.41118 10.6229C5.27998 10.4037 4.26291 9.34346 4.26291 7.904C4.26291 7.28426 4.52691 6.6848 4.97544 6.17973C4.82824 5.6784 4.64318 4.656 5.03198 4.26666C5.99091 4.26666 6.57064 4.88853 6.70984 5.05653C7.18771 4.8928 7.71251 4.8 8.26398 4.8C8.81651 4.8 9.34344 4.8928 9.82238 5.0576C9.95998 4.89066 10.5402 4.26666 11.5013 4.26666C11.8917 4.65653 11.7045 5.6832 11.5557 6.18347C12.0016 6.68746 12.264 7.28533 12.264 7.904C12.264 9.3424 11.2485 10.4021 9.12051 10.6224C9.70611 10.928 10.1333 11.7867 10.1333 12.4336V13.8917C10.1333 13.9472 10.121 13.9872 10.1146 14.0347C12.6085 13.1605 14.4 10.7925 14.4 8C14.4 4.4656 11.5344 1.6 7.99998 1.6Z" fill="white"/>
</svg>
