<svg fill="#fff" width="80px" height="80px" viewBox="0 0 2.4 2.4" xmlns="http://www.w3.org/2000/svg" data-name="Layer 1"><path d="M1.734 0.546a0.12 0.12 0 1 0 0.12 0.12 0.12 0.12 0 0 0 -0.12 -0.12m0.46 0.242a0.76 0.76 0 0 0 -0.046 -0.243 0.49 0.49 0 0 0 -0.116 -0.177 0.47 0.47 0 0 0 -0.177 -0.115 0.73 0.73 0 0 0 -0.243 -0.047C1.506 0.2 1.472 0.2 1.2 0.2s-0.306 0 -0.412 0.006a0.73 0.73 0 0 0 -0.243 0.047 0.48 0.48 0 0 0 -0.177 0.115 0.47 0.47 0 0 0 -0.115 0.177 0.73 0.73 0 0 0 -0.047 0.243C0.2 0.894 0.2 0.928 0.2 1.2s0 0.306 0.006 0.412a0.73 0.73 0 0 0 0.047 0.243 0.47 0.47 0 0 0 0.115 0.177 0.48 0.48 0 0 0 0.177 0.115 0.73 0.73 0 0 0 0.243 0.047C0.894 2.2 0.928 2.2 1.2 2.2s0.306 0 0.412 -0.006a0.73 0.73 0 0 0 0.243 -0.047 0.47 0.47 0 0 0 0.177 -0.115 0.485 0.485 0 0 0 0.116 -0.177 0.76 0.76 0 0 0 0.046 -0.243c0 -0.106 0.006 -0.14 0.006 -0.412s0 -0.306 -0.006 -0.412M2.014 1.6a0.56 0.56 0 0 1 -0.034 0.186 0.306 0.306 0 0 1 -0.075 0.115 0.32 0.32 0 0 1 -0.115 0.075 0.56 0.56 0 0 1 -0.186 0.034c-0.1 0.005 -0.137 0.006 -0.4 0.006s-0.3 0 -0.4 -0.006a0.57 0.57 0 0 1 -0.194 -0.03 0.33 0.33 0 0 1 -0.11 -0.075 0.3 0.3 0 0 1 -0.074 -0.115 0.55 0.55 0 0 1 -0.04 -0.19c0 -0.1 -0.006 -0.137 -0.006 -0.4s0 -0.3 0.006 -0.4a0.55 0.55 0 0 1 0.035 -0.19A0.3 0.3 0 0 1 0.5 0.5a0.31 0.31 0 0 1 0.11 -0.08A0.57 0.57 0 0 1 0.8 0.386c0.1 0 0.137 -0.006 0.4 -0.006s0.3 0 0.4 0.006a0.56 0.56 0 0 1 0.186 0.034 0.306 0.306 0 0 1 0.119 0.08 0.31 0.31 0 0 1 0.075 0.11 0.56 0.56 0 0 1 0.034 0.19c0.005 0.1 0.006 0.137 0.006 0.4s-0.001 0.3 -0.006 0.4M1.2 0.687A0.513 0.513 0 1 0 1.714 1.2 0.512 0.512 0 0 0 1.2 0.687m0 0.846A0.333 0.333 0 1 1 1.533 1.2 0.333 0.333 0 0 1 1.2 1.533"/></svg>