<svg fill="#fff" width="80px" height="80px" viewBox="0 -0.05 2.5 2.5" xmlns="http://www.w3.org/2000/svg"><path d="M2.542 1.2v0.003c0 0.054 -0.016 0.105 -0.043 0.148l0.001 -0.001a0.277 0.277 0 0 1 -0.111 0.102l-0.002 0.001c0.011 0.04 0.017 0.087 0.017 0.134v0.002a0.633 0.633 0 0 1 -0.152 0.408l0.001 -0.001a1.02 1.02 0 0 1 -0.405 0.294l-0.007 0.002c-0.164 0.069 -0.354 0.108 -0.553 0.108L1.273 2.4h0.001l-0.015 0c-0.199 0 -0.389 -0.04 -0.562 -0.112l0.01 0.004a1.026 1.026 0 0 1 -0.41 -0.294l-0.001 -0.002a0.63 0.63 0 0 1 -0.151 -0.407v-0.001c0 -0.047 0.006 -0.093 0.016 -0.137l-0.001 0.004a0.286 0.286 0 0 1 -0.116 -0.103l-0.001 -0.001a0.28 0.28 0 0 1 -0.044 -0.151c0 -0.078 0.031 -0.148 0.082 -0.199a0.27 0.27 0 0 1 0.195 -0.083h0.005c0.08 0 0.152 0.034 0.202 0.089l0 0a1.314 1.314 0 0 1 0.73 -0.23h0.001l0.165 -0.739a0.048 0.048 0 0 1 0.021 -0.03l0 0a0.046 0.046 0 0 1 0.037 -0.007l0 0 0.523 0.115c0.017 -0.035 0.044 -0.064 0.076 -0.084l0.001 -0.001c0.032 -0.02 0.071 -0.032 0.112 -0.032 0.058 0 0.112 0.024 0.15 0.062 0.039 0.037 0.062 0.089 0.062 0.146v0.004c0 0.058 -0.024 0.11 -0.062 0.147l0 0a0.211 0.211 0 0 1 -0.15 0.062 0.212 0.212 0 0 1 -0.15 -0.062 0.203 0.203 0 0 1 -0.062 -0.146v-0.004l-0.474 -0.105 -0.148 0.669c0.275 0.002 0.529 0.087 0.741 0.23l-0.005 -0.003a0.28 0.28 0 0 1 0.203 -0.087c0.078 0 0.149 0.032 0.2 0.083 0.051 0.05 0.083 0.119 0.083 0.196v0.004V1.2zM0.593 1.482v0.003c0 0.058 0.024 0.11 0.062 0.147a0.202 0.202 0 0 0 0.146 0.062h0.004a0.213 0.213 0 0 0 0.213 -0.213v-0.003c0 -0.057 -0.024 -0.109 -0.062 -0.146l0 0a0.206 0.206 0 0 0 -0.147 -0.062h-0.003a0.213 0.213 0 0 0 -0.211 0.211v0zm1.149 0.504a0.051 0.051 0 0 0 0 -0.074 0.048 0.048 0 0 0 -0.034 -0.014h-0.001a0.053 0.053 0 0 0 -0.036 0.014 0.354 0.354 0 0 1 -0.169 0.088l-0.002 0a0.926 0.926 0 0 1 -0.46 -0.001l0.006 0.001a0.355 0.355 0 0 1 -0.172 -0.088l0 0a0.053 0.053 0 0 0 -0.036 -0.014h-0.002a0.048 0.048 0 0 0 -0.034 0.014 0.047 0.047 0 0 0 -0.016 0.035v0.001c0 0.015 0.006 0.028 0.016 0.037a0.42 0.42 0 0 0 0.165 0.096l0.003 0.001a0.8 0.8 0 0 0 0.17 0.041l0.004 0.001q0.067 0.006 0.129 0.006t0.129 -0.006a0.84 0.84 0 0 0 0.18 -0.044l-0.006 0.002a0.42 0.42 0 0 0 0.169 -0.097l0 0zm-0.004 -0.291h0.003c0.057 0 0.109 -0.024 0.146 -0.062l0 0c0.038 -0.037 0.062 -0.09 0.062 -0.147v-0.003a0.213 0.213 0 0 0 -0.211 -0.211h-0.003c-0.058 0 -0.11 0.024 -0.147 0.062a0.202 0.202 0 0 0 -0.062 0.146v0.004a0.213 0.213 0 0 0 0.213 0.213z"/></svg>