<svg width="16" height="16" viewBox="0 0 16 16" fill="none" xmlns="http://www.w3.org/2000/svg">
<path d="M8 4C5.746 4 2.82046 4.4767 2.82046 4.4767L2.8131 4.4838C1.78651 4.62238 1 5.36698 1 6.27253V8.99956V9.00044V11.7266V11.7275C1.001 12.16 1.18462 12.578 1.51789 12.9065C1.85116 13.2349 2.31225 13.4524 2.81836 13.5198L2.82046 13.5224C2.82046 13.5224 5.746 14 8 14C10.254 14 13.1795 13.5224 13.1795 13.5224L13.1806 13.5215C13.6873 13.4543 14.1489 13.2367 14.4824 12.9078C14.8159 12.5789 14.9995 12.1604 15 11.7275V11.7266V9.00044V8.99956V6.27253C14.9992 5.8399 14.8157 5.42167 14.4825 5.093C14.1492 4.76432 13.6879 4.54675 13.1816 4.47936L13.1795 4.4767C13.1795 4.4767 10.254 4 8 4ZM6.38462 6.90812L10.6923 8.99956L6.38462 11.091V6.90812Z" fill="white"/>
</svg>
